<?xml version="1.0" encoding="iso-8859-1"?>
<!-- Generator: Adobe Illustrator 19.0.0, SVG Export Plug-In . SVG Version: 6.00 Build 0)  -->
<svg version="1.1" id="Layer_1" xmlns="http://www.w3.org/2000/svg" xmlns:xlink="http://www.w3.org/1999/xlink" x="0px" y="0px"
	 viewBox="0 0 512 512" style="enable-background:new 0 0 512 512;" xml:space="preserve">
<g>
	<path style="fill:#38454F;" d="M512,317.793H0V48.552c0-17.064,13.833-30.897,30.897-30.897h450.207
		c17.064,0,30.897,13.833,30.897,30.897V317.793z"/>
	<g>
		<path style="fill:#ECBA16;" d="M141.241,70.621H44.138c-4.873,0-8.828-3.955-8.828-8.828s3.955-8.828,8.828-8.828h97.103
			c4.873,0,8.828,3.955,8.828,8.828S146.114,70.621,141.241,70.621"/>
		<path style="fill:#ECBA16;" d="M256,70.621h-79.448c-4.873,0-8.828-3.955-8.828-8.828s3.955-8.828,8.828-8.828H256
			c4.873,0,8.828,3.955,8.828,8.828S260.873,70.621,256,70.621"/>
		<path style="fill:#ECBA16;" d="M97.103,105.931H44.138c-4.873,0-8.828-3.955-8.828-8.828s3.955-8.828,8.828-8.828h52.966
			c4.873,0,8.828,3.955,8.828,8.828S101.976,105.931,97.103,105.931"/>
		<path style="fill:#ECBA16;" d="M211.862,105.931h-79.448c-4.873,0-8.828-3.955-8.828-8.828s3.955-8.828,8.828-8.828h79.448
			c4.873,0,8.828,3.955,8.828,8.828S216.735,105.931,211.862,105.931"/>
		<path style="fill:#ECBA16;" d="M256,105.931h-8.828c-4.873,0-8.828-3.955-8.828-8.828s3.955-8.828,8.828-8.828H256
			c4.873,0,8.828,3.955,8.828,8.828S260.873,105.931,256,105.931"/>
	</g>
	<path style="fill:#E8EDEE;" d="M361.931,494.345H150.069c0-19.5,15.81-35.31,35.31-35.31h141.241
		C346.121,459.034,361.931,474.845,361.931,494.345"/>
	<polygon style="fill:#B0B6BB;" points="317.793,459.034 194.207,459.034 211.862,388.414 300.138,388.414 	"/>
	<g>
		<path style="fill:#E8EDEE;" d="M481.103,388.414H30.897C13.833,388.414,0,374.581,0,357.517v-39.724h512v39.724
			C512,374.581,498.167,388.414,481.103,388.414"/>
		<path style="fill:#E8EDEE;" d="M119.651,233.448c-2.26,0-4.52-0.865-6.241-2.586c-3.452-3.452-3.452-9.039,0-12.482l25.529-25.521
			c3.443-3.443,9.031-3.443,12.482,0c3.443,3.452,3.443,9.039,0,12.482l-25.529,25.521
			C124.171,232.583,121.911,233.448,119.651,233.448"/>
		<path style="fill:#E8EDEE;" d="M215.797,233.448c-2.26,0-4.52-0.865-6.241-2.586l-25.529-25.521
			c-3.443-3.443-3.443-9.031,0-12.482c3.443-3.443,9.039-3.443,12.482,0l25.529,25.521c3.452,3.443,3.452,9.031,0,12.482
			C220.317,232.583,218.057,233.448,215.797,233.448"/>
		<path style="fill:#E8EDEE;" d="M248.241,237.276c-2.26,0-4.52-0.865-6.241-2.587c-3.452-3.452-3.452-9.031,0-12.482l73.49-73.481
			c3.443-3.452,9.031-3.452,12.482,0c3.443,3.443,3.443,9.031,0,12.482l-73.49,73.481
			C252.761,236.411,250.501,237.276,248.241,237.276"/>
		<path style="fill:#E8EDEE;" d="M418.832,215.793c-2.26,0-4.52-0.865-6.241-2.586l-52.012-52.003
			c-3.443-3.443-3.443-9.031,0-12.482c3.452-3.443,9.039-3.443,12.482,0l52.012,52.003c3.452,3.443,3.452,9.031,0,12.482
			C423.352,214.928,421.092,215.793,418.832,215.793"/>
	</g>
	<g>
		<path style="fill:#25AE88;" d="M194.207,185.379c0,14.627-11.855,26.483-26.483,26.483s-26.483-11.855-26.483-26.483
			c0-14.627,11.855-26.483,26.483-26.483S194.207,170.752,194.207,185.379"/>
		<path style="fill:#25AE88;" d="M370.759,141.241c0,14.627-11.855,26.483-26.483,26.483c-14.627,0-26.483-11.855-26.483-26.483
			s11.855-26.483,26.483-26.483C358.903,114.759,370.759,126.614,370.759,141.241"/>
		<path style="fill:#25AE88;" d="M459.034,229.517c0,14.627-11.855,26.483-26.483,26.483s-26.483-11.855-26.483-26.483
			s11.855-26.483,26.483-26.483S459.034,214.89,459.034,229.517"/>
		<path style="fill:#25AE88;" d="M256,247.172c0,14.627-11.855,26.483-26.483,26.483s-26.483-11.855-26.483-26.483
			s11.855-26.483,26.483-26.483S256,232.545,256,247.172"/>
		<path style="fill:#25AE88;" d="M132.414,247.172c0,14.627-11.855,26.483-26.483,26.483S79.448,261.8,79.448,247.172
			s11.855-26.483,26.483-26.483S132.414,232.545,132.414,247.172"/>
	</g>
</g>
<g>
</g>
<g>
</g>
<g>
</g>
<g>
</g>
<g>
</g>
<g>
</g>
<g>
</g>
<g>
</g>
<g>
</g>
<g>
</g>
<g>
</g>
<g>
</g>
<g>
</g>
<g>
</g>
<g>
</g>
</svg>
