<?xml version="1.0" encoding="iso-8859-1"?>
<!-- Generator: Adobe Illustrator 19.0.0, SVG Export Plug-In . SVG Version: 6.00 Build 0)  -->
<svg version="1.1" id="Layer_1" xmlns="http://www.w3.org/2000/svg" xmlns:xlink="http://www.w3.org/1999/xlink" x="0px" y="0px"
	 viewBox="0 0 512 512" style="enable-background:new 0 0 512 512;" xml:space="preserve">
<g>
	<path style="fill:#38454F;" d="M512,317.793H0V48.552c0-17.064,13.833-30.897,30.897-30.897h450.207
		c17.064,0,30.897,13.833,30.897,30.897V317.793z"/>
	<path style="fill:#E8EDEE;" d="M361.931,494.345H150.069c0-19.5,15.81-35.31,35.31-35.31h141.241
		C346.121,459.034,361.931,474.845,361.931,494.345"/>
	<polygon style="fill:#B0B6BB;" points="317.793,459.034 194.207,459.034 211.862,388.414 300.138,388.414 	"/>
	<path style="fill:#E8EDEE;" d="M481.103,388.414H30.897C13.833,388.414,0,374.581,0,357.517v-39.724h512v39.724
		C512,374.581,498.167,388.414,481.103,388.414"/>
	<polygon style="fill:#25AE88;" points="97.103,282.483 150.069,282.483 150.069,141.241 97.103,141.241 	"/>
	<polygon style="fill:#DD691D;" points="150.069,282.483 203.034,282.483 203.034,88.276 150.069,88.276 	"/>
	<polygon style="fill:#D38479;" points="203.034,282.483 256,282.483 256,167.724 203.034,167.724 	"/>
	<polygon style="fill:#ECBA16;" points="256,282.483 308.966,282.483 308.966,114.759 256,114.759 	"/>
	<polygon style="fill:#DD691D;" points="308.966,282.483 361.931,282.483 361.931,52.966 308.966,52.966 	"/>
	<polygon style="fill:#25AE88;" points="361.931,282.483 414.897,282.483 414.897,88.276 361.931,88.276 	"/>
	<path style="fill:#E8EDEE;" d="M450.207,291.31H61.793c-4.873,0-8.828-3.955-8.828-8.828s3.955-8.828,8.828-8.828h388.414
		c4.873,0,8.828,3.955,8.828,8.828S455.08,291.31,450.207,291.31"/>
</g>
<g>
</g>
<g>
</g>
<g>
</g>
<g>
</g>
<g>
</g>
<g>
</g>
<g>
</g>
<g>
</g>
<g>
</g>
<g>
</g>
<g>
</g>
<g>
</g>
<g>
</g>
<g>
</g>
<g>
</g>
</svg>
